HIERARCHY
ROOT Hips
{
	OFFSET 0.000000 97.167313 0.000000
	CHANNELS 6 Xposition Yposition Zposition Xrotation Yrotation Zrotation
	JOINT Spine
	{
		OFFSET 0.000000 13.784798 0.064400
		CHANNELS 3 Xrotation Yrotation Zrotation
		JOINT Spine1
		{
			OFFSET 0.000000 12.037903 0.404700
			CHANNELS 3 Xrotation Yrotation Zrotation
			JOINT Spine2
			{
				OFFSET 0.000000 17.795601 0.420200
				CHANNELS 3 Xrotation Yrotation Zrotation
				JOINT Neck
				{
					OFFSET 0.000000 39.131302 11.954600
					CHANNELS 3 Xrotation Yrotation Zrotation
					JOINT Head
					{
						OFFSET 0.000000 14.456192 15.627699
						CHANNELS 3 Xrotation Yrotation Zrotation
						JOINT HeadTop_End
						{
							OFFSET 0.000000 15.703506 7.603401
							CHANNELS 3 Xrotation Yrotation Zrotation
							End Site
							{
								OFFSET 0.000000 17.447403 0.000000
							}
						}
					}
				}
				JOINT LeftShoulder
				{
					OFFSET 17.399500 24.608795 1.168800
					CHANNELS 3 Xrotation Yrotation Zrotation
					JOINT LeftArm
					{
						OFFSET 18.980635 5.765305 1.818600
						CHANNELS 3 Xrotation Yrotation Zrotation
						JOINT LeftForeArm
						{
							OFFSET 49.290169 0.000000 0.000000
							CHANNELS 3 Xrotation Yrotation Zrotation
							JOINT LeftHand
							{
								OFFSET 31.562012 0.000000 0.000000
								CHANNELS 3 Xrotation Yrotation Zrotation
								JOINT LeftHandThumb1
								{
									OFFSET 6.133995 -4.388519 7.076070
									CHANNELS 3 Xrotation Yrotation Zrotation
									JOINT LeftHandThumb2
									{
										OFFSET 6.037666 -3.485840 3.485847
										CHANNELS 3 Xrotation Yrotation Zrotation
										JOINT LeftHandThumb3
										{
											OFFSET 6.496506 -3.750763 3.750761
											CHANNELS 3 Xrotation Yrotation Zrotation
											JOINT LeftHandThumb4
											{
												OFFSET 5.616882 -3.242905 3.242910
												CHANNELS 3 Xrotation Yrotation Zrotation
												End Site
												{
													OFFSET -1.254608 7.132141 0.375429
												}
											}
										}
									}
								}
								JOINT LeftHandPinky1
								{
									OFFSET 18.920792 -0.453171 -11.426712
									CHANNELS 3 Xrotation Yrotation Zrotation
									JOINT LeftHandPinky2
									{
										OFFSET 4.919586 0.000000 0.000000
										CHANNELS 3 Xrotation Yrotation Zrotation
										JOINT LeftHandPinky3
										{
											OFFSET 5.233047 0.000000 0.000000
											CHANNELS 3 Xrotation Yrotation Zrotation
											JOINT LeftHandPinky4
											{
												OFFSET 5.571716 0.000000 0.000000
												CHANNELS 3 Xrotation Yrotation Zrotation
												End Site
												{
													OFFSET -3.459808 4.342407 -0.466164
												}
											}
										}
									}
								}
								JOINT LeftHandRing1
								{
									OFFSET 22.726120 -0.094986 -6.500475
									CHANNELS 3 Xrotation Yrotation Zrotation
									JOINT LeftHandRing2
									{
										OFFSET 6.408615 0.000000 0.000000
										CHANNELS 3 Xrotation Yrotation Zrotation
										JOINT LeftHandRing3
										{
											OFFSET 6.150223 0.000000 0.000000
											CHANNELS 3 Xrotation Yrotation Zrotation
											JOINT LeftHandRing4
											{
												OFFSET 6.145386 0.000000 0.000000
												CHANNELS 3 Xrotation Yrotation Zrotation
												End Site
												{
													OFFSET -3.671402 4.923981 -0.202372
												}
											}
										}
									}
								}
								JOINT LeftHandMiddle1
								{
									OFFSET 23.373947 0.000000 0.000001
									CHANNELS 3 Xrotation Yrotation Zrotation
									JOINT LeftHandMiddle2
									{
										OFFSET 6.996567 0.000000 0.000000
										CHANNELS 3 Xrotation Yrotation Zrotation
										JOINT LeftHandMiddle3
										{
											OFFSET 7.015945 0.000000 0.000000
											CHANNELS 3 Xrotation Yrotation Zrotation
											JOINT LeftHandMiddle4
											{
												OFFSET 7.721573 0.000000 0.000000
												CHANNELS 3 Xrotation Yrotation Zrotation
												End Site
												{
													OFFSET -4.651108 6.158463 0.251582
												}
											}
										}
									}
								}
								JOINT LeftHandIndex1
								{
									OFFSET 21.310577 -0.490082 6.209344
									CHANNELS 3 Xrotation Yrotation Zrotation
									JOINT LeftHandIndex2
									{
										OFFSET 7.536453 0.000000 0.000000
										CHANNELS 3 Xrotation Yrotation Zrotation
										JOINT LeftHandIndex3
										{
											OFFSET 7.512344 0.000000 0.000000
											CHANNELS 3 Xrotation Yrotation Zrotation
											JOINT LeftHandIndex4
											{
												OFFSET 10.212402 0.000000 0.000001
												CHANNELS 3 Xrotation Yrotation Zrotation
												End Site
												{
													OFFSET -5.180801 8.690506 1.388433
												}
											}
										}
									}
								}
							}
						}
					}
				}
				JOINT RightShoulder
				{
					OFFSET -17.399500 24.608795 1.168800
					CHANNELS 3 Xrotation Yrotation Zrotation
					JOINT RightArm
					{
						OFFSET -18.980635 5.765305 1.818600
						CHANNELS 3 Xrotation Yrotation Zrotation
						JOINT RightForeArm
						{
							OFFSET -49.290169 0.000000 0.000000
							CHANNELS 3 Xrotation Yrotation Zrotation
							JOINT RightHand
							{
								OFFSET -31.562012 0.000000 0.000000
								CHANNELS 3 Xrotation Yrotation Zrotation
								JOINT RightHandThumb1
								{
									OFFSET -6.133995 -4.388519 7.076070
									CHANNELS 3 Xrotation Yrotation Zrotation
									JOINT RightHandThumb2
									{
										OFFSET -6.037666 -3.485840 3.485847
										CHANNELS 3 Xrotation Yrotation Zrotation
										JOINT RightHandThumb3
										{
											OFFSET -6.496506 -3.750763 3.750761
											CHANNELS 3 Xrotation Yrotation Zrotation
											JOINT RightHandThumb4
											{
												OFFSET -5.616882 -3.242905 3.242910
												CHANNELS 3 Xrotation Yrotation Zrotation
												End Site
												{
													OFFSET 1.254608 7.132141 0.375429
												}
											}
										}
									}
								}
								JOINT RightHandIndex1
								{
									OFFSET -21.310577 -0.490082 6.209344
									CHANNELS 3 Xrotation Yrotation Zrotation
									JOINT RightHandIndex2
									{
										OFFSET -7.536453 0.000000 0.000000
										CHANNELS 3 Xrotation Yrotation Zrotation
										JOINT RightHandIndex3
										{
											OFFSET -7.512344 0.000000 0.000000
											CHANNELS 3 Xrotation Yrotation Zrotation
											JOINT RightHandIndex4
											{
												OFFSET -10.212402 0.000000 0.000001
												CHANNELS 3 Xrotation Yrotation Zrotation
												End Site
												{
													OFFSET 5.180801 8.690506 1.388433
												}
											}
										}
									}
								}
								JOINT RightHandMiddle1
								{
									OFFSET -23.373947 0.000000 0.000001
									CHANNELS 3 Xrotation Yrotation Zrotation
									JOINT RightHandMiddle2
									{
										OFFSET -6.996567 0.000000 0.000000
										CHANNELS 3 Xrotation Yrotation Zrotation
										JOINT RightHandMiddle3
										{
											OFFSET -7.015945 0.000000 0.000000
											CHANNELS 3 Xrotation Yrotation Zrotation
											JOINT RightHandMiddle4
											{
												OFFSET -7.721573 0.000000 0.000000
												CHANNELS 3 Xrotation Yrotation Zrotation
												End Site
												{
													OFFSET 4.651108 6.158463 0.251582
												}
											}
										}
									}
								}
								JOINT RightHandRing1
								{
									OFFSET -22.726120 -0.094986 -6.500475
									CHANNELS 3 Xrotation Yrotation Zrotation
									JOINT RightHandRing2
									{
										OFFSET -6.408615 0.000000 0.000000
										CHANNELS 3 Xrotation Yrotation Zrotation
										JOINT RightHandRing3
										{
											OFFSET -6.150223 0.000000 0.000000
											CHANNELS 3 Xrotation Yrotation Zrotation
											JOINT RightHandRing4
											{
												OFFSET -6.145386 0.000000 0.000000
												CHANNELS 3 Xrotation Yrotation Zrotation
												End Site
												{
													OFFSET 3.671402 4.923981 -0.202372
												}
											}
										}
									}
								}
								JOINT RightHandPinky1
								{
									OFFSET -18.920792 -0.453171 -11.426712
									CHANNELS 3 Xrotation Yrotation Zrotation
									JOINT RightHandPinky2
									{
										OFFSET -4.919586 0.000000 0.000000
										CHANNELS 3 Xrotation Yrotation Zrotation
										JOINT RightHandPinky3
										{
											OFFSET -5.233047 0.000000 0.000000
											CHANNELS 3 Xrotation Yrotation Zrotation
											JOINT RightHandPinky4
											{
												OFFSET -5.571716 0.000000 0.000000
												CHANNELS 3 Xrotation Yrotation Zrotation
												End Site
												{
													OFFSET 3.459808 4.342407 -0.466164
												}
											}
										}
									}
								}
							}
						}
					}
				}
			}
		}
	}
	JOINT LeftUpLeg
	{
		OFFSET 19.899099 -7.885101 -3.429500
		CHANNELS 3 Xrotation Yrotation Zrotation
		JOINT LeftLeg
		{
			OFFSET 1.745560 -36.997807 10.304700
			CHANNELS 3 Xrotation Yrotation Zrotation
			JOINT LeftFoot
			{
				OFFSET -1.745558 -29.803308 -13.615400
				CHANNELS 3 Xrotation Yrotation Zrotation
				JOINT LeftToeBase
				{
					OFFSET 1.181900 -18.539904 15.226099
					CHANNELS 3 Xrotation Yrotation Zrotation
					JOINT LeftToe_End
					{
						OFFSET -0.863701 1.402801 16.534700
						CHANNELS 3 Xrotation Yrotation Zrotation
						End Site
						{
							OFFSET 0.000000 16.616566 0.000000
						}
					}
				}
			}
		}
	}
	JOINT RightUpLeg
	{
		OFFSET -19.899099 -7.885101 -3.429500
		CHANNELS 3 Xrotation Yrotation Zrotation
		JOINT RightLeg
		{
			OFFSET -1.745560 -36.997807 10.304700
			CHANNELS 3 Xrotation Yrotation Zrotation
			JOINT RightFoot
			{
				OFFSET 1.745558 -29.803308 -13.615400
				CHANNELS 3 Xrotation Yrotation Zrotation
				JOINT RightToeBase
				{
					OFFSET -1.181900 -18.539904 15.226099
					CHANNELS 3 Xrotation Yrotation Zrotation
					JOINT RightToe_End
					{
						OFFSET 0.863701 1.402801 16.534700
						CHANNELS 3 Xrotation Yrotation Zrotation
						End Site
						{
							OFFSET 0.000000 16.616566 0.000000
						}
					}
				}
			}
		}
	}
}
MOTION
Frames: 6
Frame Time: 0.033333
-2.174587 65.911308 7.298471 15.745905 -20.955430 9.417850 23.617549 -7.413765 -9.572453 5.019890 -1.319583 -2.969951 5.049234 -1.230583 -2.940706 1.787876 1.690413 1.496526 -41.790943 15.197222 9.152774 -0.000000 0.000000 -0.000000 3.683475 -17.494051 -8.176230 -32.793920 25.676464 -51.295216 0.000095 -83.759860 0.000089 -132.709674 11.052415 1.885291 30.451200 -20.046209 25.680948 -27.513202 19.080605 -8.263437 0.934337 -15.972283 15.282159 0.000000 -0.000001 0.000002 8.545105 9.067444 -75.503636 2.845857 5.022630 -59.050879 1.013932 3.295888 -34.191282 0.000000 0.000002 -0.000007 5.499501 8.486052 -68.009566 3.826634 5.490833 -69.725208 0.973183 3.235211 -33.476031 -0.000000 -0.000001 0.000001 1.412197 6.400493 -56.671121 3.163625 5.199287 -62.616995 1.181616 3.529710 -37.007710 0.000001 -0.000001 0.000008 -2.673954 2.301335 -46.777022 3.336753 5.285004 -64.511519 0.591680 2.567567 -25.950050 -0.000000 0.000003 0.000001 0.280543 26.594661 10.033981 -1.453551 36.574502 24.137351 0.000034 104.645615 -0.000002 -21.182560 -20.819279 8.621870 61.632205 28.897779 -13.280798 0.330320 -35.814817 7.397278 -15.909647 -47.311388 -52.518728 -0.000001 -0.000001 0.000001 -0.575494 -0.947571 17.139368 0.321395 -1.701663 21.388391 0.689177 -2.440033 31.540065 -0.000005 0.000002 -0.000001 0.670084 -5.101773 53.857735 5.248139 -4.619594 97.298073 1.778670 -3.662610 51.793249 0.000001 -0.000000 -0.000004 7.412612 -8.470662 67.075470 3.825506 -4.582455 79.701812 2.852041 -4.293803 67.171967 -0.000003 0.000005 0.000000 7.484582 -8.453004 67.591798 1.968034 -3.803741 54.700936 3.471987 -4.504155 75.241296 -0.000004 0.000001 0.000006 -68.113153 -3.377195 19.485176 66.289677 2.682492 -4.947469 -8.034156 6.715231 -13.042139 -0.009535 -0.000002 0.000001 0.000000 0.000000 0.000000 -45.479515 5.422624 -10.137051 79.819196 2.976236 -1.320924 -47.674847 -7.582585 5.791053 -5.219465 -0.000013 -0.000003 0.000000 -0.000001 0.000000 
-2.556718 66.707306 7.222536 16.130817 -20.102563 8.832834 23.865436 -7.332901 -9.484735 5.019759 -1.284658 -2.943827 5.048390 -1.203664 -2.912756 1.787884 1.690411 1.468130 -42.767947 17.588319 9.810214 -0.000000 0.000000 -0.000000 3.676611 -17.436701 -8.325069 -33.555148 25.069420 -51.078460 0.000152 -83.210193 0.000143 -132.513047 11.126546 1.834198 30.448649 -20.064205 25.679964 -27.513213 19.080605 -8.263440 0.934336 -15.972286 15.282159 0.000000 0.000002 -0.000002 8.546035 9.067051 -75.511751 2.845859 5.022641 -59.050865 1.013622 3.295439 -34.186080 0.000000 -0.000002 -0.000004 5.500357 8.486092 -68.017776 3.826631 5.490829 -69.725214 0.973186 3.235208 -33.476007 0.000000 -0.000003 0.000001 1.412764 6.401129 -56.679474 3.163642 5.199264 -62.616982 1.181617 3.529713 -37.007707 0.000002 -0.000002 0.000004 -2.673962 2.302528 -46.784962 3.336738 5.284984 -64.511519 0.591809 2.567849 -25.952830 -0.000000 0.000003 0.000002 0.238437 26.715995 10.167231 -1.871588 36.342836 24.205618 -0.000016 104.356254 0.000059 -20.969044 -20.626896 8.943990 61.632205 28.897779 -13.280806 0.330323 -35.814811 7.397280 -15.909654 -47.311388 -52.518721 -0.000000 -0.000001 0.000001 -0.575500 -0.947576 17.139361 0.321395 -1.701657 21.388392 0.689177 -2.440032 31.540075 -0.000004 -0.000001 0.000001 0.670081 -5.101774 53.857732 5.248138 -4.619595 97.298066 1.778670 -3.662613 51.793253 0.000001 -0.000002 -0.000004 7.412605 -8.470664 67.075470 3.825499 -4.582458 79.701819 2.852041 -4.293805 67.171960 0.000000 0.000001 -0.000003 7.484576 -8.453004 67.591791 1.968028 -3.803739 54.700933 3.471981 -4.504152 75.241302 0.000000 -0.000004 0.000007 -68.310689 -3.334362 19.511986 64.467881 2.206930 -4.685857 -6.895790 6.469121 -12.714142 -0.009522 -0.000001 0.000000 0.000000 0.000000 -0.000000 -44.693667 4.083383 -10.029917 77.650604 2.849710 -0.777468 -47.225287 -6.927505 5.675890 -5.219783 0.000008 0.000002 -0.000000 0.000002 -0.000000 
-3.028325 67.649498 7.229029 16.680343 -18.700523 8.217590 23.955946 -7.397744 -9.325395 4.992671 -1.298993 -2.906432 5.021911 -1.215462 -2.874949 1.770493 1.697796 1.450527 -43.811688 20.332636 10.454017 -0.000000 0.000000 -0.000000 3.665810 -17.366494 -8.538936 -34.580093 23.833037 -50.958494 0.000030 -81.942490 0.000023 -131.957793 11.243183 1.473456 30.500445 -20.069551 25.825461 -27.513206 19.080608 -8.263439 0.934334 -15.972288 15.282156 0.000000 0.000001 -0.000001 8.530869 9.072656 -75.385317 2.845841 5.022641 -59.050872 1.012500 3.293782 -34.166334 0.000003 0.000000 -0.000006 5.486685 8.485039 -67.892811 3.826646 5.490822 -69.725208 0.973189 3.235203 -33.476171 0.000004 0.000002 -0.000002 1.404144 6.391520 -56.557098 3.163633 5.199282 -62.616989 1.181622 3.529715 -37.007707 -0.000000 -0.000001 0.000001 -2.673781 2.284283 -46.664085 3.337029 5.285124 -64.514682 0.592307 2.568820 -25.963666 -0.000001 0.000001 0.000001 0.269080 26.787847 9.997279 -2.337276 35.914627 24.465507 -0.000012 103.588172 0.000068 -20.768476 -19.680039 9.283801 61.632205 28.897779 -13.280801 0.330320 -35.814811 7.397278 -15.909654 -47.311392 -52.518728 -0.000000 -0.000002 -0.000000 -0.575498 -0.947578 17.139366 0.321394 -1.701663 21.388398 0.689177 -2.440037 31.540068 -0.000003 -0.000003 -0.000001 0.670086 -5.101775 53.857735 5.248137 -4.619598 97.298073 1.778667 -3.662609 51.793253 0.000001 0.000000 -0.000001 7.412610 -8.470661 67.075477 3.825506 -4.582461 79.701819 2.852042 -4.293804 67.171960 -0.000001 0.000000 -0.000005 7.484576 -8.453003 67.591798 1.968035 -3.803738 54.700936 3.471986 -4.504158 75.241302 -0.000001 -0.000003 0.000004 -68.710795 -3.099498 19.210027 62.104847 1.504801 -4.359527 -5.434288 6.129936 -12.175126 -0.009523 0.000002 -0.000001 -0.000000 0.000000 0.000000 -43.692635 2.207473 -10.283261 75.334043 2.636729 -0.066462 -46.950331 -6.200588 5.601232 -5.147756 -0.000003 -0.000005 -0.000000 0.000002 -0.000000 
-3.442315 68.669174 7.304182 17.309615 -16.740543 7.460799 23.966193 -7.725227 -9.066380 4.922632 -1.387210 -2.870976 4.954158 -1.298624 -2.836748 1.739219 1.712894 1.464031 -45.109318 23.120057 11.359056 -0.000001 -0.000000 -0.000000 3.666827 -17.253099 -8.660825 -35.519419 22.714407 -51.230817 0.000141 -80.561794 0.000107 -131.027357 11.392346 0.728914 30.307868 -19.913688 25.240826 -27.513211 19.080605 -8.263441 0.934335 -15.972286 15.282156 0.000001 0.000002 -0.000002 8.556339 9.045130 -75.837940 2.844326 5.021705 -59.033345 1.019379 3.303903 -34.286204 0.000000 -0.000003 0.000001 5.503659 8.476076 -68.339150 3.827848 5.491256 -69.737830 0.975237 3.238302 -33.512480 0.000000 -0.000001 -0.000005 1.434978 6.425642 -56.992926 3.162774 5.198837 -62.607433 1.181619 3.529717 -37.007707 -0.000000 0.000000 0.000002 -2.674205 2.349647 -47.096856 3.333625 5.283477 -64.477423 0.589387 2.562868 -25.899184 -0.000001 0.000002 -0.000003 0.234519 26.848910 10.128415 -2.400170 35.364448 24.190566 -0.000172 102.620778 0.000172 -20.533306 -18.141210 9.809405 61.632205 28.897779 -13.280805 0.330323 -35.814811 7.397275 -15.909647 -47.311392 -52.518721 -0.000000 -0.000001 0.000002 -0.575497 -0.947572 17.139364 0.321390 -1.701663 21.388391 0.689177 -2.440033 31.540068 0.000000 -0.000001 0.000001 0.670085 -5.101767 53.857735 5.248139 -4.619593 97.298073 1.778671 -3.662614 51.793249 0.000001 -0.000002 -0.000004 7.412614 -8.470659 67.075477 3.825505 -4.582458 79.701819 2.852044 -4.293805 67.171960 0.000000 -0.000000 -0.000003 7.484583 -8.453002 67.591798 1.968033 -3.803740 54.700933 3.471991 -4.504158 75.241302 0.000001 0.000003 0.000003 -69.436680 -1.538068 18.549044 59.975502 0.346040 -3.617077 -4.496950 6.470682 -10.812096 -0.034178 0.000001 -0.000002 0.000000 0.000000 0.000000 -42.514256 -0.002623 -10.742187 72.884798 1.968534 0.956069 -46.732697 -5.117000 5.317244 -5.167229 -0.000008 -0.000002 -0.000000 -0.000001 -0.000000 
-3.852226 69.672630 7.229309 18.008559 -14.541918 6.680682 23.685112 -8.086998 -8.911764 4.822971 -1.475813 -2.796833 4.857011 -1.386110 -2.758778 1.691777 1.751905 1.330389 -46.392813 25.787104 12.312414 0.000001 0.000001 -0.000000 3.671150 -16.929268 -9.001220 -36.483677 21.330838 -51.761574 0.000028 -78.662872 0.000010 -129.792241 11.684218 -0.024128 30.119867 -19.683140 24.640199 -27.513208 19.080606 -8.263441 0.934335 -15.972285 15.282154 0.000001 0.000001 -0.000001 8.573983 9.016682 -76.277968 2.842345 5.020528 -59.010895 1.027822 3.316228 -34.432346 0.000004 -0.000002 0.000003 5.512426 8.464568 -68.771652 3.829193 5.491749 -69.751634 0.977781 3.242128 -33.557542 -0.000001 -0.000001 0.000007 1.464955 6.458282 -57.413211 3.161659 5.198259 -62.595153 1.181618 3.529710 -37.007707 -0.000000 0.000002 0.000004 -2.674176 2.412727 -47.514665 3.329456 5.281519 -64.432405 0.586048 2.555986 -25.823987 -0.000000 0.000003 -0.000003 0.407510 26.962870 9.301288 -2.520165 34.859226 24.589067 -0.000035 101.277143 0.000064 -20.577690 -16.160352 10.022071 61.632205 28.897786 -13.280804 0.330325 -35.814814 7.397277 -15.909648 -47.311382 -52.518732 0.000000 0.000002 0.000002 -0.575496 -0.947571 17.139368 0.321393 -1.701663 21.388394 0.689178 -2.440039 31.540072 -0.000003 -0.000005 -0.000002 0.670084 -5.101774 53.857729 5.248134 -4.619594 97.298073 1.778663 -3.662604 51.793249 -0.000001 -0.000001 -0.000007 7.412610 -8.470661 67.075470 3.825502 -4.582455 79.701819 2.852042 -4.293808 67.171974 -0.000000 0.000001 -0.000003 7.484579 -8.453003 67.591791 1.968032 -3.803741 54.700936 3.471990 -4.504159 75.241302 -0.000000 -0.000001 0.000007 -70.860808 6.536688 18.532607 60.989341 -1.949425 -0.944858 -6.992550 10.945105 -6.670769 -0.199666 0.000004 -0.000002 0.000000 -0.000000 -0.000000 -41.625915 -2.237441 -11.035736 70.441974 1.195235 1.906375 -46.047612 -4.357259 5.040503 -5.183489 -0.000003 -0.000004 0.000000 0.000002 -0.000000 
-4.138579 70.541435 7.211695 18.268897 -12.425252 5.678400 23.535491 -8.151161 -9.057861 4.732125 -1.456359 -2.791559 4.765805 -1.364901 -2.752087 1.672054 1.754758 1.352719 -47.320285 28.331971 13.094153 0.000000 0.000000 0.000000 3.688055 -16.752731 -9.011016 -37.443876 20.044165 -52.800904 0.000099 -76.173787 0.000086 -128.279490 12.221957 -1.135008 30.026280 -19.677558 24.377975 -27.513211 19.080612 -8.263446 0.934338 -15.972286 15.282161 0.000003 -0.000000 0.000000 8.588743 9.003118 -76.509348 2.841716 5.020165 -59.003696 1.029861 3.319184 -34.467392 0.000001 0.000001 -0.000000 5.524625 8.461501 -68.999944 3.829592 5.491907 -69.756046 0.978380 3.243044 -33.568303 0.000001 0.000000 0.000003 1.480999 6.475545 -57.636784 3.161215 5.198047 -62.590283 1.181618 3.529715 -37.007703 0.000000 -0.000000 0.000004 -2.673949 2.445970 -47.734768 3.328539 5.281065 -64.422583 0.585267 2.554342 -25.806302 -0.000001 0.000001 0.000001 0.451367 27.089449 9.053319 -2.076605 34.074116 24.179836 0.000055 99.930824 -0.000016 -20.788523 -14.109567 10.177436 61.632212 28.897776 -13.280801 0.330325 -35.814811 7.397277 -15.909647 -47.311395 -52.518714 -0.000000 -0.000001 0.000002 -0.575499 -0.947581 17.139366 0.321389 -1.701663 21.388391 0.689173 -2.440027 31.540068 -0.000003 -0.000001 0.000001 0.670083 -5.101770 53.857732 5.248139 -4.619591 97.298073 1.778669 -3.662612 51.793249 -0.000000 -0.000000 -0.000001 7.412609 -8.470662 67.075463 3.825503 -4.582463 79.701826 2.852041 -4.293807 67.171967 0.000001 -0.000001 -0.000005 7.484578 -8.453004 67.591791 1.968031 -3.803734 54.700933 3.471988 -4.504161 75.241302 -0.000001 -0.000001 0.000007 -71.627333 19.034139 19.750380 63.888060 -4.027359 2.974587 -13.810770 17.616902 -0.783662 -0.449669 0.000013 -0.000004 -0.000000 0.000001 -0.000000 -40.158787 -4.325864 -10.892593 68.176114 0.805843 2.607633 -45.743925 -4.483023 4.504349 -5.334633 -0.000003 -0.000003 -0.000000 0.000002 -0.000000 
